<?xml version="1.0" encoding="UTF-8"?>
<!DOCTYPE svg PUBLIC "-//W3C//DTD SVG 1.1//EN" "http://www.w3.org/Graphics/SVG/1.1/DTD/svg11.dtd">
<!-- Creator: CorelDRAW X8 -->
<svg xmlns="http://www.w3.org/2000/svg" xml:space="preserve" width="180mm" height="50mm" version="1.1" style="shape-rendering:geometricPrecision; text-rendering:geometricPrecision; image-rendering:optimizeQuality; fill-rule:evenodd; clip-rule:evenodd"
viewBox="0 0 18000 5000"
 xmlns:xlink="http://www.w3.org/1999/xlink">
 <defs>
  <style type="text/css">
   <![CDATA[
    .fil1 {fill:black}
    .fil5 {fill:#00701A}
    .fil2 {fill:#870000}
    .fil4 {fill:#AB320D}
    .fil3 {fill:#BF360C}
    .fil0 {fill:#00701A;fill-rule:nonzero}
   ]]>
  </style>
     <mask id="id0">
  <linearGradient id="id1" gradientUnits="userSpaceOnUse" x1="2016.75" y1="3726.64" x2="2016.75" y2="1211.51">
   <stop offset="0" style="stop-opacity:0.4; stop-color:white"/>
   <stop offset="0.219608" style="stop-opacity:-127.4; stop-color:white"/>
   <stop offset="0.501961" style="stop-opacity:0.121569; stop-color:white"/>
   <stop offset="1" style="stop-opacity:0.4; stop-color:white"/>
  </linearGradient>
      <rect style="fill:url(#id1)" x="1482" y="1202" width="1069" height="2535"/>
     </mask>
 </defs>
 <g id="Camada_x0020_1">
  <metadata id="CorelCorpID_0Corel-Layer"/>
  <g id="_2088808898272">
   <path class="fil0" d="M3436 3166c0,208 -53,395 -161,561 -107,166 -264,296 -472,390 -207,94 -453,141 -736,141 -341,0 -622,-64 -843,-192 -156,-92 -283,-216 -381,-370 -98,-155 -147,-305 -147,-451 0,-84 29,-157 88,-218 59,-60 133,-90 224,-90 74,0 136,24 186,71 52,47 95,117 131,210 44,109 92,201 143,274 51,74 122,135 215,184 93,47 214,71 365,71 207,0 375,-48 505,-144 129,-97 194,-217 194,-362 0,-115 -34,-208 -104,-279 -70,-71 -161,-126 -272,-164 -110,-37 -258,-77 -443,-120 -248,-58 -456,-126 -622,-203 -167,-78 -299,-184 -397,-318 -98,-135 -147,-301 -147,-501 0,-189 51,-358 155,-506 103,-147 253,-260 449,-340 196,-79 427,-119 692,-119 211,0 394,27 549,79 155,53 283,123 385,210 101,87 176,178 224,274 46,95 70,189 70,280 0,83 -30,158 -88,225 -59,67 -133,100 -220,100 -81,0 -141,-20 -183,-60 -41,-40 -86,-106 -135,-197 -63,-130 -138,-232 -226,-305 -88,-73 -229,-109 -424,-109 -180,0 -326,39 -436,119 -111,79 -167,174 -167,286 0,69 19,128 57,179 37,50 90,93 155,129 66,36 133,64 200,85 68,20 180,50 335,89 194,46 371,96 528,151 158,55 292,122 403,201 110,77 196,177 258,297 62,120 93,267 93,442zm2867 -1877l-1575 0 0 848 1450 0c107,0 186,24 239,72 53,47 78,111 78,189 0,78 -25,142 -77,191 -52,49 -132,74 -240,74l-1450 0 0 983 1628 0c110,0 193,26 249,76 56,51 84,119 84,203 0,82 -28,148 -84,199 -56,50 -139,76 -249,76l-1899 0c-151,0 -261,-34 -327,-101 -67,-68 -101,-177 -101,-327l0 -2595c0,-100 16,-182 45,-245 30,-64 77,-110 140,-139 63,-29 145,-44 243,-44l1846 0c111,0 194,25 248,74 54,50 81,115 81,195 0,81 -27,147 -81,197 -54,49 -137,74 -248,74zm4093 1509l0 661c0,88 -9,158 -26,210 -17,53 -49,101 -95,142 -47,43 -106,84 -179,123 -208,113 -408,195 -601,247 -193,51 -403,77 -631,77 -265,0 -507,-41 -724,-122 -219,-82 -404,-200 -558,-356 -154,-155 -272,-343 -354,-564 -83,-222 -124,-468 -124,-741 0,-269 40,-514 120,-737 80,-222 198,-411 353,-567 155,-155 344,-274 567,-356 223,-83 475,-124 758,-124 232,0 438,32 616,94 179,61 325,139 435,233 112,94 196,194 253,299 56,105 84,199 84,281 0,87 -33,162 -98,224 -65,62 -143,93 -235,93 -49,0 -98,-11 -144,-36 -47,-23 -85,-56 -117,-98 -86,-134 -159,-236 -218,-306 -60,-68 -141,-126 -241,-173 -101,-47 -231,-71 -387,-71 -162,0 -306,28 -433,84 -127,55 -236,136 -326,242 -90,106 -159,236 -207,389 -47,154 -71,325 -71,511 0,405 93,716 278,934 186,218 445,327 777,327 162,0 313,-21 456,-63 141,-43 286,-103 431,-182l0 -560 -541 0c-130,0 -229,-19 -295,-58 -67,-40 -100,-106 -100,-201 0,-76 28,-141 84,-191 55,-50 131,-75 227,-75l793 0c97,0 180,9 247,26 68,17 122,56 163,115 42,60 63,150 63,269zm670 -24l0 -1659c0,-142 32,-247 96,-318 63,-70 147,-106 250,-106 108,0 194,36 257,106 64,71 96,177 96,318l0 1697c0,193 22,354 65,484 42,129 120,229 229,301 110,71 263,107 461,107 273,0 466,-73 579,-218 113,-145 170,-365 170,-660l0 -1711c0,-142 31,-249 94,-319 62,-70 147,-105 252,-105 104,0 189,35 254,105 66,70 98,177 98,319l0 1659c0,269 -26,495 -78,675 -53,181 -152,339 -298,476 -126,115 -272,200 -438,253 -166,53 -361,80 -583,80 -265,0 -493,-29 -685,-86 -192,-57 -347,-146 -468,-266 -121,-120 -210,-274 -267,-461 -56,-187 -84,-411 -84,-671zm5931 -1485l-1575 0 0 848 1450 0c107,0 186,24 239,72 53,47 78,111 78,189 0,78 -25,142 -77,191 -52,49 -131,74 -240,74l-1450 0 0 983 1628 0c110,0 193,26 249,76 56,51 84,119 84,203 0,82 -28,148 -84,199 -56,50 -139,76 -249,76l-1899 0c-151,0 -261,-34 -327,-101 -67,-68 -101,-177 -101,-327l0 -2595c0,-100 16,-182 45,-245 30,-64 77,-110 140,-139 64,-29 145,-44 243,-44l1846 0c111,0 194,25 248,74 54,50 81,115 81,195 0,81 -27,147 -81,197 -54,49 -137,74 -248,74z"/>
   <g>
    <path class="fil0" d="M1198 3012c50,46 92,115 127,206 44,109 92,201 143,274 51,74 122,135 215,184 93,47 214,71 365,71 207,0 375,-48 505,-144 129,-97 194,-217 194,-362 0,-115 -34,-208 -104,-279 -70,-71 -161,-126 -272,-164 -110,-37 -258,-77 -443,-120 -248,-58 -456,-126 -622,-203 -38,-18 -74,-37 -108,-57l0 -1463 1678 0 0 890c-32,-10 -59,-25 -81,-46 -41,-40 -86,-106 -135,-197 -63,-130 -138,-232 -226,-305 -88,-73 -229,-109 -424,-109 -180,0 -326,39 -436,119 -111,79 -167,174 -167,286 0,69 19,128 57,179 37,50 90,93 155,129 66,36 133,64 200,85 68,20 180,50 335,89 194,46 371,96 528,152 69,23 134,50 194,78l0 1572 -1678 0 0 -865z"/>
    <path class="fil1" style="mask:url(#id0)" d="M1845 2464l-48 182c43,11 86,21 131,32 142,33 262,64 361,94l252 -303 -313 -376c-25,-6 -49,-12 -74,-18 -155,-39 -267,-69 -335,-89 -40,-12 -80,-27 -120,-45l146 523zm-309 1108l-44 155 94 -112c-18,-14 -35,-28 -50,-43zm36 -2264l-80 -96 37 130c14,-12 28,-23 43,-34z"/>
    <path class="fil2" d="M1977 2469l-560 1408 1411 -1408 -851 0 0 0zm851 0l0 0 0 0 0 0z"/>
    <polygon class="fil3" points="1977,2469 1417,1061 2828,2469 "/>
    <polygon class="fil4" points="1977,2469 1417,3877 2035,2469 1417,1061 "/>
    <path class="fil5" d="M2746 3271l685 7c-16,164 -68,313 -156,449 -107,166 -264,296 -472,390 -207,94 -453,141 -736,141 -341,0 -622,-64 -843,-192 -156,-92 -283,-216 -381,-370 -98,-155 -147,-305 -147,-451 0,-84 29,-157 88,-218 59,-60 133,-90 224,-90 74,0 136,24 186,71 52,47 95,117 131,210 44,109 92,201 143,274 51,74 122,135 215,184 93,47 214,71 365,71 207,0 375,-48 505,-144 120,-90 185,-201 193,-332z"/>
    <path class="fil5" d="M784 1449l634 62c21,-77 73,-145 156,-204 110,-80 256,-119 436,-119 195,0 336,36 424,109 88,73 163,175 226,305 49,91 94,157 135,197 42,40 102,60 183,60 87,0 161,-33 220,-100 58,-67 88,-142 88,-225 0,-91 -24,-185 -71,-280 -47,-96 -122,-187 -223,-274 -102,-87 -230,-157 -385,-210 -155,-52 -338,-79 -549,-79 -265,0 -496,40 -692,119 -196,80 -346,193 -449,340 -65,92 -109,191 -133,299z"/>
   </g>
  </g>
 </g>
</svg>
